<?xml version="1.0" encoding="utf-8" standalone="no"?>
<!DOCTYPE svg PUBLIC "-//W3C//DTD SVG 1.1//EN"
  "http://www.w3.org/Graphics/SVG/1.1/DTD/svg11.dtd">
<svg xmlns:xlink="http://www.w3.org/1999/xlink" width="496.8pt" height="244.8pt" viewBox="0 0 496.8 244.8" xmlns="http://www.w3.org/2000/svg" version="1.1">
 <metadata>
  <rdf:RDF xmlns:dc="http://purl.org/dc/elements/1.1/" xmlns:cc="http://creativecommons.org/ns#" xmlns:rdf="http://www.w3.org/1999/02/22-rdf-syntax-ns#">
   <cc:Work>
    <dc:type rdf:resource="http://purl.org/dc/dcmitype/StillImage"/>
    <dc:date>2026-10-01T16:15:08.766857</dc:date>
    <dc:format>image/svg+xml</dc:format>
    <dc:creator>
     <cc:Agent>
      <dc:title>Matplotlib v3.11.1, https://matplotlib.org/</dc:title>
     </cc:Agent>
    </dc:creator>
   </cc:Work>
  </rdf:RDF>
 </metadata>
 <defs>
  <style type="text/css">*{stroke-linejoin: round; stroke-linecap: butt}</style>
 </defs>
 <g id="figure_1">
  <g id="patch_1">
   <path d="M 0 244.8 
L 496.8 244.8 
L 496.8 0 
L 0 0 
z
" style="fill: #ffffff"/>
  </g>
  <g id="axes_1">
   <g id="patch_2">
    <path d="M 150.28 203.895234 
L 486 203.895234 
L 486 25.08 
L 150.28 25.08 
z
" style="fill: #ffffff"/>
   </g>
   <g id="matplotlib.axis_1">
    <g id="xtick_1">
     <g id="line2d_1">
      <path d="M 150.28 203.895234 
L 150.28 25.08 
" clip-path="url(#p348addbf25)" style="fill: none; stroke: #e3ddd3; stroke-width: 0.7; stroke-linecap: square"/>
     </g>
     <g id="line2d_2">
      <defs>
       <path id="m387f0a0e85" d="M 0 0 
L 0 3.5 
" style="stroke: #5a5a5a; stroke-width: 0.8"/>
      </defs>
      <g>
       <use xlink:href="#m387f0a0e85" x="150.28" y="203.895234" style="fill: #5a5a5a; stroke: #5a5a5a; stroke-width: 0.8"/>
      </g>
     </g>
     <g id="text_1">
      <!-- 7.5 -->
      <g style="fill: #5a5a5a" transform="translate(143.805 218.175508) scale(0.1 -0.1)">
       <defs>
        <path id="SegoeUI-1a" d="M 3156 4184 
Q 3053 4006 2908 3740 
Q 2763 3475 2600 3144 
Q 2438 2813 2269 2431 
Q 2100 2050 1953 1644 
Q 1806 1238 1695 820 
Q 1584 403 1534 0 
L 984 0 
Q 1041 400 1158 817 
Q 1275 1234 1423 1636 
Q 1572 2038 1737 2409 
Q 1903 2781 2059 3093 
Q 2216 3406 2345 3645 
Q 2475 3884 2553 4019 
L 306 4019 
L 306 4481 
L 3156 4481 
L 3156 4184 
z
" transform="scale(0.015625)"/>
        <path id="SegoeUI-11" d="M 697 -69 
Q 553 -69 451 34 
Q 350 138 350 281 
Q 350 425 451 529 
Q 553 634 697 634 
Q 844 634 947 529 
Q 1050 425 1050 281 
Q 1050 138 947 34 
Q 844 -69 697 -69 
z
" transform="scale(0.015625)"/>
        <path id="SegoeUI-18" d="M 3028 1369 
Q 3028 1041 2915 775 
Q 2803 509 2595 318 
Q 2388 128 2094 25 
Q 1800 -78 1441 -78 
Q 816 -78 513 109 
L 513 653 
Q 969 359 1447 359 
Q 1691 359 1886 431 
Q 2081 503 2218 631 
Q 2356 759 2429 940 
Q 2503 1122 2503 1338 
Q 2503 1775 2209 2023 
Q 1916 2272 1356 2272 
Q 1266 2272 1166 2269 
Q 1066 2266 966 2261 
Q 866 2256 770 2250 
Q 675 2244 597 2234 
L 750 4481 
L 2822 4481 
L 2822 4019 
L 1194 4019 
L 1103 2703 
Q 1203 2709 1315 2714 
Q 1428 2719 1516 2719 
Q 1872 2719 2153 2625 
Q 2434 2531 2629 2357 
Q 2825 2184 2926 1932 
Q 3028 1681 3028 1369 
z
" transform="scale(0.015625)"/>
       </defs>
       <use xlink:href="#SegoeUI-1a"/>
       <use xlink:href="#SegoeUI-11" transform="translate(53.90625 0)"/>
       <use xlink:href="#SegoeUI-18" transform="translate(75.59375 0)"/>
      </g>
     </g>
    </g>
    <g id="xtick_2">
     <g id="line2d_3">
      <path d="M 204.428387 203.895234 
L 204.428387 25.08 
" clip-path="url(#p348addbf25)" style="fill: none; stroke: #e3ddd3; stroke-width: 0.7; stroke-linecap: square"/>
     </g>
     <g id="line2d_4">
      <g>
       <use xlink:href="#m387f0a0e85" x="204.428387" y="203.895234" style="fill: #5a5a5a; stroke: #5a5a5a; stroke-width: 0.8"/>
      </g>
     </g>
     <g id="text_2">
      <!-- 8.0 -->
      <g style="fill: #5a5a5a" transform="translate(197.953387 218.175508) scale(0.1 -0.1)">
       <defs>
        <path id="SegoeUI-1b" d="M 281 1250 
Q 281 1428 337 1608 
Q 394 1788 498 1944 
Q 603 2100 758 2228 
Q 913 2356 1109 2431 
Q 819 2594 647 2848 
Q 475 3103 475 3413 
Q 475 3659 570 3868 
Q 666 4078 834 4231 
Q 1003 4384 1234 4470 
Q 1466 4556 1734 4556 
Q 2006 4556 2237 4468 
Q 2469 4381 2637 4228 
Q 2806 4075 2900 3865 
Q 2994 3656 2994 3413 
Q 2994 3103 2822 2848 
Q 2650 2594 2366 2431 
Q 2559 2356 2712 2228 
Q 2866 2100 2970 1944 
Q 3075 1788 3131 1608 
Q 3188 1428 3188 1250 
Q 3188 956 3081 712 
Q 2975 469 2783 295 
Q 2591 122 2323 25 
Q 2056 -72 1734 -72 
Q 1416 -72 1150 25 
Q 884 122 690 295 
Q 497 469 389 712 
Q 281 956 281 1250 
z
M 838 1294 
Q 838 1084 902 915 
Q 966 747 1083 628 
Q 1200 509 1367 445 
Q 1534 381 1738 381 
Q 1934 381 2100 447 
Q 2266 513 2386 631 
Q 2506 750 2573 919 
Q 2641 1088 2641 1294 
Q 2641 1481 2577 1645 
Q 2513 1809 2394 1934 
Q 2275 2059 2109 2131 
Q 1944 2203 1738 2203 
Q 1544 2203 1380 2136 
Q 1216 2069 1095 1948 
Q 975 1828 906 1661 
Q 838 1494 838 1294 
z
M 997 3372 
Q 997 3213 1055 3077 
Q 1113 2941 1214 2839 
Q 1316 2738 1450 2680 
Q 1584 2622 1738 2622 
Q 1891 2622 2027 2681 
Q 2163 2741 2263 2842 
Q 2363 2944 2422 3080 
Q 2481 3216 2481 3372 
Q 2481 3534 2423 3671 
Q 2366 3809 2266 3909 
Q 2166 4009 2030 4067 
Q 1894 4125 1738 4125 
Q 1572 4125 1436 4065 
Q 1300 4006 1201 3904 
Q 1103 3803 1050 3665 
Q 997 3528 997 3372 
z
" transform="scale(0.015625)"/>
        <path id="SegoeUI-13" d="M 3188 2259 
Q 3188 1697 3086 1262 
Q 2984 828 2792 529 
Q 2600 231 2320 76 
Q 2041 -78 1684 -78 
Q 1347 -78 1083 70 
Q 819 219 637 503 
Q 456 788 362 1202 
Q 269 1616 269 2150 
Q 269 2738 367 3188 
Q 466 3638 656 3942 
Q 847 4247 1130 4401 
Q 1413 4556 1778 4556 
Q 3188 4556 3188 2259 
z
M 2663 2209 
Q 2663 4122 1753 4122 
Q 794 4122 794 2175 
Q 794 359 1734 359 
Q 2663 359 2663 2209 
z
" transform="scale(0.015625)"/>
       </defs>
       <use xlink:href="#SegoeUI-1b"/>
       <use xlink:href="#SegoeUI-11" transform="translate(53.90625 0)"/>
       <use xlink:href="#SegoeUI-13" transform="translate(75.59375 0)"/>
      </g>
     </g>
    </g>
    <g id="xtick_3">
     <g id="line2d_5">
      <path d="M 258.576774 203.895234 
L 258.576774 25.08 
" clip-path="url(#p348addbf25)" style="fill: none; stroke: #e3ddd3; stroke-width: 0.7; stroke-linecap: square"/>
     </g>
     <g id="line2d_6">
      <g>
       <use xlink:href="#m387f0a0e85" x="258.576774" y="203.895234" style="fill: #5a5a5a; stroke: #5a5a5a; stroke-width: 0.8"/>
      </g>
     </g>
     <g id="text_3">
      <!-- 8.5 -->
      <g style="fill: #5a5a5a" transform="translate(252.101774 218.175508) scale(0.1 -0.1)">
       <use xlink:href="#SegoeUI-1b"/>
       <use xlink:href="#SegoeUI-11" transform="translate(53.90625 0)"/>
       <use xlink:href="#SegoeUI-18" transform="translate(75.59375 0)"/>
      </g>
     </g>
    </g>
    <g id="xtick_4">
     <g id="line2d_7">
      <path d="M 312.725161 203.895234 
L 312.725161 25.08 
" clip-path="url(#p348addbf25)" style="fill: none; stroke: #e3ddd3; stroke-width: 0.7; stroke-linecap: square"/>
     </g>
     <g id="line2d_8">
      <g>
       <use xlink:href="#m387f0a0e85" x="312.725161" y="203.895234" style="fill: #5a5a5a; stroke: #5a5a5a; stroke-width: 0.8"/>
      </g>
     </g>
     <g id="text_4">
      <!-- 9.0 -->
      <g style="fill: #5a5a5a" transform="translate(306.250161 218.175508) scale(0.1 -0.1)">
       <defs>
        <path id="SegoeUI-1c" d="M 3138 2509 
Q 3138 1894 3016 1414 
Q 2894 934 2659 601 
Q 2425 269 2087 95 
Q 1750 -78 1319 -78 
Q 875 -78 538 78 
L 538 569 
Q 909 359 1331 359 
Q 1634 359 1873 484 
Q 2113 609 2278 848 
Q 2444 1088 2531 1438 
Q 2619 1788 2619 2241 
L 2606 2241 
Q 2319 1663 1606 1663 
Q 1319 1663 1078 1764 
Q 838 1866 663 2052 
Q 488 2238 391 2494 
Q 294 2750 294 3059 
Q 294 3391 401 3666 
Q 509 3941 701 4139 
Q 894 4338 1158 4447 
Q 1422 4556 1734 4556 
Q 2072 4556 2333 4420 
Q 2594 4284 2772 4023 
Q 2950 3763 3044 3381 
Q 3138 3000 3138 2509 
z
M 2584 2969 
Q 2584 3228 2517 3440 
Q 2450 3653 2331 3804 
Q 2213 3956 2048 4039 
Q 1884 4122 1691 4122 
Q 1506 4122 1347 4048 
Q 1188 3975 1070 3842 
Q 953 3709 886 3526 
Q 819 3344 819 3128 
Q 819 2891 883 2703 
Q 947 2516 1065 2386 
Q 1184 2256 1351 2187 
Q 1519 2119 1722 2119 
Q 1900 2119 2058 2186 
Q 2216 2253 2333 2367 
Q 2450 2481 2517 2636 
Q 2584 2791 2584 2969 
z
" transform="scale(0.015625)"/>
       </defs>
       <use xlink:href="#SegoeUI-1c"/>
       <use xlink:href="#SegoeUI-11" transform="translate(53.90625 0)"/>
       <use xlink:href="#SegoeUI-13" transform="translate(75.59375 0)"/>
      </g>
     </g>
    </g>
    <g id="xtick_5">
     <g id="line2d_9">
      <path d="M 366.873548 203.895234 
L 366.873548 25.08 
" clip-path="url(#p348addbf25)" style="fill: none; stroke: #e3ddd3; stroke-width: 0.7; stroke-linecap: square"/>
     </g>
     <g id="line2d_10">
      <g>
       <use xlink:href="#m387f0a0e85" x="366.873548" y="203.895234" style="fill: #5a5a5a; stroke: #5a5a5a; stroke-width: 0.8"/>
      </g>
     </g>
     <g id="text_5">
      <!-- 9.5 -->
      <g style="fill: #5a5a5a" transform="translate(360.398548 218.175508) scale(0.1 -0.1)">
       <use xlink:href="#SegoeUI-1c"/>
       <use xlink:href="#SegoeUI-11" transform="translate(53.90625 0)"/>
       <use xlink:href="#SegoeUI-18" transform="translate(75.59375 0)"/>
      </g>
     </g>
    </g>
    <g id="xtick_6">
     <g id="line2d_11">
      <path d="M 421.021935 203.895234 
L 421.021935 25.08 
" clip-path="url(#p348addbf25)" style="fill: none; stroke: #e3ddd3; stroke-width: 0.7; stroke-linecap: square"/>
     </g>
     <g id="line2d_12">
      <g>
       <use xlink:href="#m387f0a0e85" x="421.021935" y="203.895234" style="fill: #5a5a5a; stroke: #5a5a5a; stroke-width: 0.8"/>
      </g>
     </g>
     <g id="text_6">
      <!-- 10.0 -->
      <g style="fill: #5a5a5a" transform="translate(411.851623 218.175508) scale(0.1 -0.1)">
       <defs>
        <path id="SegoeUI-14" d="M 2263 0 
L 1750 0 
L 1750 3872 
Q 1691 3813 1577 3736 
Q 1463 3659 1320 3584 
Q 1178 3509 1020 3443 
Q 863 3378 713 3341 
L 713 3859 
Q 881 3906 1070 3986 
Q 1259 4066 1442 4164 
Q 1625 4263 1787 4370 
Q 1950 4478 2069 4581 
L 2263 4581 
L 2263 0 
z
" transform="scale(0.015625)"/>
       </defs>
       <use xlink:href="#SegoeUI-14"/>
       <use xlink:href="#SegoeUI-13" transform="translate(53.90625 0)"/>
       <use xlink:href="#SegoeUI-11" transform="translate(107.8125 0)"/>
       <use xlink:href="#SegoeUI-13" transform="translate(129.5 0)"/>
      </g>
     </g>
    </g>
    <g id="xtick_7">
     <g id="line2d_13">
      <path d="M 475.170323 203.895234 
L 475.170323 25.08 
" clip-path="url(#p348addbf25)" style="fill: none; stroke: #e3ddd3; stroke-width: 0.7; stroke-linecap: square"/>
     </g>
     <g id="line2d_14">
      <g>
       <use xlink:href="#m387f0a0e85" x="475.170323" y="203.895234" style="fill: #5a5a5a; stroke: #5a5a5a; stroke-width: 0.8"/>
      </g>
     </g>
     <g id="text_7">
      <!-- 10.5 -->
      <g style="fill: #5a5a5a" transform="translate(466.00001 218.175508) scale(0.1 -0.1)">
       <use xlink:href="#SegoeUI-14"/>
       <use xlink:href="#SegoeUI-13" transform="translate(53.90625 0)"/>
       <use xlink:href="#SegoeUI-11" transform="translate(107.8125 0)"/>
       <use xlink:href="#SegoeUI-18" transform="translate(129.5 0)"/>
      </g>
     </g>
    </g>
    <g id="text_8">
     <!-- Kept from every £10 of consumer spending, after output VAT (modelled) -->
     <g style="fill: #5a5a5a" transform="translate(159.089219 231.789375) scale(0.1 -0.1)">
      <defs>
       <path id="SegoeUI-2e" d="M 3706 0 
L 2975 0 
L 1244 2050 
Q 1147 2166 1125 2206 
L 1113 2206 
L 1113 0 
L 588 0 
L 588 4481 
L 1113 4481 
L 1113 2375 
L 1125 2375 
Q 1169 2444 1244 2528 
L 2919 4481 
L 3572 4481 
L 1650 2331 
L 3706 0 
z
" transform="scale(0.015625)"/>
       <path id="SegoeUI-48" d="M 3091 1472 
L 831 1472 
Q 844 938 1119 647 
Q 1394 356 1875 356 
Q 2416 356 2869 713 
L 2869 231 
Q 2447 -75 1753 -75 
Q 1075 -75 687 361 
Q 300 797 300 1588 
Q 300 2334 723 2804 
Q 1147 3275 1775 3275 
Q 2403 3275 2747 2869 
Q 3091 2463 3091 1741 
L 3091 1472 
z
M 2566 1906 
Q 2563 2350 2352 2597 
Q 2141 2844 1766 2844 
Q 1403 2844 1150 2584 
Q 897 2325 838 1906 
L 2566 1906 
z
" transform="scale(0.015625)"/>
       <path id="SegoeUI-53" d="M 1044 463 
L 1031 463 
L 1031 -1472 
L 519 -1472 
L 519 3200 
L 1031 3200 
L 1031 2638 
L 1044 2638 
Q 1422 3275 2150 3275 
Q 2769 3275 3116 2845 
Q 3463 2416 3463 1694 
Q 3463 891 3072 408 
Q 2681 -75 2003 -75 
Q 1381 -75 1044 463 
z
M 1031 1753 
L 1031 1306 
Q 1031 909 1289 632 
Q 1547 356 1944 356 
Q 2409 356 2673 712 
Q 2938 1069 2938 1703 
Q 2938 2238 2691 2541 
Q 2444 2844 2022 2844 
Q 1575 2844 1303 2533 
Q 1031 2222 1031 1753 
z
" transform="scale(0.015625)"/>
       <path id="SegoeUI-57" d="M 2003 31 
Q 1822 -69 1525 -69 
Q 684 -69 684 869 
L 684 2763 
L 134 2763 
L 134 3200 
L 684 3200 
L 684 3981 
L 1197 4147 
L 1197 3200 
L 2003 3200 
L 2003 2763 
L 1197 2763 
L 1197 959 
Q 1197 638 1306 500 
Q 1416 363 1669 363 
Q 1863 363 2003 469 
L 2003 31 
z
" transform="scale(0.015625)"/>
       <path id="SegoeUI-3" transform="scale(0.015625)"/>
       <path id="SegoeUI-49" d="M 2100 4288 
Q 1950 4372 1759 4372 
Q 1222 4372 1222 3694 
L 1222 3200 
L 1972 3200 
L 1972 2763 
L 1222 2763 
L 1222 0 
L 713 0 
L 713 2763 
L 166 2763 
L 166 3200 
L 713 3200 
L 713 3719 
Q 713 4222 1003 4514 
Q 1294 4806 1728 4806 
Q 1963 4806 2100 4750 
L 2100 4288 
z
" transform="scale(0.015625)"/>
       <path id="SegoeUI-55" d="M 2188 2681 
Q 2053 2784 1800 2784 
Q 1472 2784 1251 2475 
Q 1031 2166 1031 1631 
L 1031 0 
L 519 0 
L 519 3200 
L 1031 3200 
L 1031 2541 
L 1044 2541 
Q 1153 2878 1378 3067 
Q 1603 3256 1881 3256 
Q 2081 3256 2188 3213 
L 2188 2681 
z
" transform="scale(0.015625)"/>
       <path id="SegoeUI-52" d="M 1856 -75 
Q 1147 -75 723 373 
Q 300 822 300 1563 
Q 300 2369 740 2822 
Q 1181 3275 1931 3275 
Q 2647 3275 3048 2834 
Q 3450 2394 3450 1613 
Q 3450 847 3017 386 
Q 2584 -75 1856 -75 
z
M 1894 2844 
Q 1400 2844 1112 2508 
Q 825 2172 825 1581 
Q 825 1013 1115 684 
Q 1406 356 1894 356 
Q 2391 356 2658 678 
Q 2925 1000 2925 1594 
Q 2925 2194 2658 2519 
Q 2391 2844 1894 2844 
z
" transform="scale(0.015625)"/>
       <path id="SegoeUI-50" d="M 5063 0 
L 4550 0 
L 4550 1838 
Q 4550 2369 4386 2606 
Q 4222 2844 3834 2844 
Q 3506 2844 3276 2544 
Q 3047 2244 3047 1825 
L 3047 0 
L 2534 0 
L 2534 1900 
Q 2534 2844 1806 2844 
Q 1469 2844 1250 2561 
Q 1031 2278 1031 1825 
L 1031 0 
L 519 0 
L 519 3200 
L 1031 3200 
L 1031 2694 
L 1044 2694 
Q 1384 3275 2038 3275 
Q 2366 3275 2609 3092 
Q 2853 2909 2944 2613 
Q 3300 3275 4006 3275 
Q 5063 3275 5063 1972 
L 5063 0 
z
" transform="scale(0.015625)"/>
       <path id="SegoeUI-59" d="M 3034 3200 
L 1759 0 
L 1256 0 
L 44 3200 
L 606 3200 
L 1419 875 
Q 1509 619 1531 428 
L 1544 428 
Q 1575 669 1644 863 
L 2494 3200 
L 3034 3200 
z
" transform="scale(0.015625)"/>
       <path id="SegoeUI-5c" d="M 3066 3200 
L 1594 -513 
Q 1200 -1506 488 -1506 
Q 288 -1506 153 -1466 
L 153 -1006 
Q 319 -1063 456 -1063 
Q 844 -1063 1038 -600 
L 1294 6 
L 44 3200 
L 613 3200 
L 1478 738 
Q 1494 691 1544 494 
L 1563 494 
Q 1578 569 1625 731 
L 2534 3200 
L 3066 3200 
z
" transform="scale(0.015625)"/>
       <path id="SegoeUI-85" d="M 3144 0 
L 331 0 
L 331 422 
Q 1013 638 1013 1400 
L 1013 1984 
L 397 1984 
L 397 2425 
L 1013 2425 
L 1013 3219 
Q 1013 3806 1353 4181 
Q 1694 4556 2234 4556 
Q 2600 4556 2900 4428 
L 2900 3944 
Q 2588 4122 2241 4122 
Q 1525 4122 1525 3163 
L 1525 2425 
L 2450 2425 
L 2450 1984 
L 1525 1984 
L 1525 1497 
Q 1525 741 922 438 
L 3144 438 
L 3144 0 
z
" transform="scale(0.015625)"/>
       <path id="SegoeUI-46" d="M 2700 147 
Q 2331 -75 1825 -75 
Q 1141 -75 720 370 
Q 300 816 300 1525 
Q 300 2316 753 2795 
Q 1206 3275 1963 3275 
Q 2384 3275 2706 3119 
L 2706 2594 
Q 2350 2844 1944 2844 
Q 1453 2844 1139 2492 
Q 825 2141 825 1569 
Q 825 1006 1120 681 
Q 1416 356 1913 356 
Q 2331 356 2700 634 
L 2700 147 
z
" transform="scale(0.015625)"/>
       <path id="SegoeUI-51" d="M 3175 0 
L 2663 0 
L 2663 1825 
Q 2663 2844 1919 2844 
Q 1534 2844 1282 2555 
Q 1031 2266 1031 1825 
L 1031 0 
L 519 0 
L 519 3200 
L 1031 3200 
L 1031 2669 
L 1044 2669 
Q 1406 3275 2094 3275 
Q 2619 3275 2897 2936 
Q 3175 2597 3175 1956 
L 3175 0 
z
" transform="scale(0.015625)"/>
       <path id="SegoeUI-56" d="M 325 116 
L 325 666 
Q 744 356 1247 356 
Q 1922 356 1922 806 
Q 1922 934 1864 1023 
Q 1806 1113 1707 1181 
Q 1609 1250 1476 1304 
Q 1344 1359 1191 1419 
Q 978 1503 817 1589 
Q 656 1675 548 1783 
Q 441 1891 386 2028 
Q 331 2166 331 2350 
Q 331 2575 434 2748 
Q 538 2922 709 3039 
Q 881 3156 1101 3215 
Q 1322 3275 1556 3275 
Q 1972 3275 2300 3131 
L 2300 2613 
Q 1947 2844 1488 2844 
Q 1344 2844 1228 2811 
Q 1113 2778 1030 2718 
Q 947 2659 901 2576 
Q 856 2494 856 2394 
Q 856 2269 901 2184 
Q 947 2100 1034 2034 
Q 1122 1969 1247 1916 
Q 1372 1863 1531 1800 
Q 1744 1719 1912 1633 
Q 2081 1547 2200 1439 
Q 2319 1331 2383 1190 
Q 2447 1050 2447 856 
Q 2447 619 2342 444 
Q 2238 269 2063 153 
Q 1888 38 1659 -18 
Q 1431 -75 1181 -75 
Q 688 -75 325 116 
z
" transform="scale(0.015625)"/>
       <path id="SegoeUI-58" d="M 3106 0 
L 2594 0 
L 2594 506 
L 2581 506 
Q 2263 -75 1594 -75 
Q 450 -75 450 1288 
L 450 3200 
L 959 3200 
L 959 1369 
Q 959 356 1734 356 
Q 2109 356 2351 632 
Q 2594 909 2594 1356 
L 2594 3200 
L 3106 3200 
L 3106 0 
z
" transform="scale(0.015625)"/>
       <path id="SegoeUI-47" d="M 3250 0 
L 2738 0 
L 2738 544 
L 2725 544 
Q 2369 -75 1625 -75 
Q 1022 -75 661 354 
Q 300 784 300 1525 
Q 300 2319 700 2797 
Q 1100 3275 1766 3275 
Q 2425 3275 2725 2756 
L 2738 2756 
L 2738 4738 
L 3250 4738 
L 3250 0 
z
M 2738 1447 
L 2738 1919 
Q 2738 2306 2481 2575 
Q 2225 2844 1831 2844 
Q 1363 2844 1094 2500 
Q 825 2156 825 1550 
Q 825 997 1083 676 
Q 1341 356 1775 356 
Q 2203 356 2470 665 
Q 2738 975 2738 1447 
z
" transform="scale(0.015625)"/>
       <path id="SegoeUI-4c" d="M 781 4013 
Q 644 4013 547 4106 
Q 450 4200 450 4344 
Q 450 4488 547 4583 
Q 644 4678 781 4678 
Q 922 4678 1020 4583 
Q 1119 4488 1119 4344 
Q 1119 4206 1020 4109 
Q 922 4013 781 4013 
z
M 1031 0 
L 519 0 
L 519 3200 
L 1031 3200 
L 1031 0 
z
" transform="scale(0.015625)"/>
       <path id="SegoeUI-4a" d="M 3250 256 
Q 3250 -1506 1563 -1506 
Q 969 -1506 525 -1281 
L 525 -769 
Q 1066 -1069 1556 -1069 
Q 2738 -1069 2738 188 
L 2738 538 
L 2725 538 
Q 2359 -75 1625 -75 
Q 1028 -75 664 351 
Q 300 778 300 1497 
Q 300 2313 692 2794 
Q 1084 3275 1766 3275 
Q 2413 3275 2725 2756 
L 2738 2756 
L 2738 3200 
L 3250 3200 
L 3250 256 
z
M 2738 1447 
L 2738 1919 
Q 2738 2300 2480 2572 
Q 2222 2844 1838 2844 
Q 1363 2844 1094 2498 
Q 825 2153 825 1531 
Q 825 997 1083 676 
Q 1341 356 1766 356 
Q 2197 356 2467 662 
Q 2738 969 2738 1447 
z
" transform="scale(0.015625)"/>
       <path id="SegoeUI-f" d="M 988 713 
L 488 -825 
L 122 -825 
L 488 713 
L 988 713 
z
" transform="scale(0.015625)"/>
       <path id="SegoeUI-44" d="M 2809 0 
L 2297 0 
L 2297 500 
L 2284 500 
Q 1950 -75 1300 -75 
Q 822 -75 551 178 
Q 281 431 281 850 
Q 281 1747 1338 1894 
L 2297 2028 
Q 2297 2844 1638 2844 
Q 1059 2844 594 2450 
L 594 2975 
Q 1066 3275 1681 3275 
Q 2809 3275 2809 2081 
L 2809 0 
z
M 2297 1619 
L 1525 1513 
Q 1169 1463 987 1336 
Q 806 1209 806 888 
Q 806 653 973 504 
Q 1141 356 1419 356 
Q 1800 356 2048 623 
Q 2297 891 2297 1300 
L 2297 1619 
z
" transform="scale(0.015625)"/>
       <path id="SegoeUI-39" d="M 3919 4481 
L 2259 0 
L 1681 0 
L 56 4481 
L 641 4481 
L 1881 928 
Q 1941 756 1972 531 
L 1984 531 
Q 2009 719 2088 934 
L 3353 4481 
L 3919 4481 
z
" transform="scale(0.015625)"/>
       <path id="SegoeUI-24" d="M 4056 0 
L 3475 0 
L 3000 1256 
L 1100 1256 
L 653 0 
L 69 0 
L 1788 4481 
L 2331 4481 
L 4056 0 
z
M 2828 1728 
L 2125 3638 
Q 2091 3731 2056 3938 
L 2044 3938 
Q 2013 3747 1972 3638 
L 1275 1728 
L 2828 1728 
z
" transform="scale(0.015625)"/>
       <path id="SegoeUI-37" d="M 3238 4006 
L 1944 4006 
L 1944 0 
L 1419 0 
L 1419 4006 
L 128 4006 
L 128 4481 
L 3238 4481 
L 3238 4006 
z
" transform="scale(0.015625)"/>
       <path id="SegoeUI-b" d="M 1863 -1019 
L 1406 -1019 
Q 438 88 438 1709 
Q 438 3338 1406 4481 
L 1869 4481 
Q 888 3294 888 1716 
Q 888 150 1863 -1019 
z
" transform="scale(0.015625)"/>
       <path id="SegoeUI-4f" d="M 1031 0 
L 519 0 
L 519 4738 
L 1031 4738 
L 1031 0 
z
" transform="scale(0.015625)"/>
       <path id="SegoeUI-c" d="M 531 -1019 
L 75 -1019 
Q 1050 150 1050 1716 
Q 1050 3294 69 4481 
L 531 4481 
Q 1506 3338 1506 1709 
Q 1506 88 531 -1019 
z
" transform="scale(0.015625)"/>
      </defs>
      <use xlink:href="#SegoeUI-2e"/>
      <use xlink:href="#SegoeUI-48" transform="translate(56.703125 0)"/>
      <use xlink:href="#SegoeUI-53" transform="translate(109 0)"/>
      <use xlink:href="#SegoeUI-57" transform="translate(167.796875 0)"/>
      <use xlink:href="#SegoeUI-3" transform="translate(201.6875 0)"/>
      <use xlink:href="#SegoeUI-49" transform="translate(229.078125 0)"/>
      <use xlink:href="#SegoeUI-55" transform="translate(260.375 0)"/>
      <use xlink:href="#SegoeUI-52" transform="translate(295.140625 0)"/>
      <use xlink:href="#SegoeUI-50" transform="translate(353.734375 0)"/>
      <use xlink:href="#SegoeUI-3" transform="translate(439.875 0)"/>
      <use xlink:href="#SegoeUI-48" transform="translate(467.265625 0)"/>
      <use xlink:href="#SegoeUI-59" transform="translate(519.5625 0)"/>
      <use xlink:href="#SegoeUI-48" transform="translate(567.46875 0)"/>
      <use xlink:href="#SegoeUI-55" transform="translate(619.765625 0)"/>
      <use xlink:href="#SegoeUI-5c" transform="translate(654.53125 0)"/>
      <use xlink:href="#SegoeUI-3" transform="translate(702.921875 0)"/>
      <use xlink:href="#SegoeUI-85" transform="translate(730.3125 0)"/>
      <use xlink:href="#SegoeUI-14" transform="translate(784.21875 0)"/>
      <use xlink:href="#SegoeUI-13" transform="translate(838.125 0)"/>
      <use xlink:href="#SegoeUI-3" transform="translate(892.03125 0)"/>
      <use xlink:href="#SegoeUI-52" transform="translate(919.421875 0)"/>
      <use xlink:href="#SegoeUI-49" transform="translate(978.015625 0)"/>
      <use xlink:href="#SegoeUI-3" transform="translate(1009.3125 0)"/>
      <use xlink:href="#SegoeUI-46" transform="translate(1036.703125 0)"/>
      <use xlink:href="#SegoeUI-52" transform="translate(1082.890625 0)"/>
      <use xlink:href="#SegoeUI-51" transform="translate(1141.484375 0)"/>
      <use xlink:href="#SegoeUI-56" transform="translate(1198.078125 0)"/>
      <use xlink:href="#SegoeUI-58" transform="translate(1240.515625 0)"/>
      <use xlink:href="#SegoeUI-50" transform="translate(1297.109375 0)"/>
      <use xlink:href="#SegoeUI-48" transform="translate(1383.25 0)"/>
      <use xlink:href="#SegoeUI-55" transform="translate(1435.546875 0)"/>
      <use xlink:href="#SegoeUI-3" transform="translate(1470.3125 0)"/>
      <use xlink:href="#SegoeUI-56" transform="translate(1497.703125 0)"/>
      <use xlink:href="#SegoeUI-53" transform="translate(1540.140625 0)"/>
      <use xlink:href="#SegoeUI-48" transform="translate(1598.9375 0)"/>
      <use xlink:href="#SegoeUI-51" transform="translate(1651.234375 0)"/>
      <use xlink:href="#SegoeUI-47" transform="translate(1707.828125 0)"/>
      <use xlink:href="#SegoeUI-4c" transform="translate(1766.71875 0)"/>
      <use xlink:href="#SegoeUI-51" transform="translate(1790.9375 0)"/>
      <use xlink:href="#SegoeUI-4a" transform="translate(1847.53125 0)"/>
      <use xlink:href="#SegoeUI-f" transform="translate(1906.421875 0)"/>
      <use xlink:href="#SegoeUI-3" transform="translate(1928.109375 0)"/>
      <use xlink:href="#SegoeUI-44" transform="translate(1955.5 0)"/>
      <use xlink:href="#SegoeUI-49" transform="translate(2006.375 0)"/>
      <use xlink:href="#SegoeUI-57" transform="translate(2037.671875 0)"/>
      <use xlink:href="#SegoeUI-48" transform="translate(2071.5625 0)"/>
      <use xlink:href="#SegoeUI-55" transform="translate(2123.859375 0)"/>
      <use xlink:href="#SegoeUI-3" transform="translate(2158.625 0)"/>
      <use xlink:href="#SegoeUI-52" transform="translate(2186.015625 0)"/>
      <use xlink:href="#SegoeUI-58" transform="translate(2244.609375 0)"/>
      <use xlink:href="#SegoeUI-57" transform="translate(2301.203125 0)"/>
      <use xlink:href="#SegoeUI-53" transform="translate(2335.09375 0)"/>
      <use xlink:href="#SegoeUI-58" transform="translate(2393.890625 0)"/>
      <use xlink:href="#SegoeUI-57" transform="translate(2450.484375 0)"/>
      <use xlink:href="#SegoeUI-3" transform="translate(2484.375 0)"/>
      <use xlink:href="#SegoeUI-39" transform="translate(2511.765625 0)"/>
      <use xlink:href="#SegoeUI-24" transform="translate(2568.015625 0)"/>
      <use xlink:href="#SegoeUI-37" transform="translate(2625.34375 0)"/>
      <use xlink:href="#SegoeUI-3" transform="translate(2677.734375 0)"/>
      <use xlink:href="#SegoeUI-b" transform="translate(2705.125 0)"/>
      <use xlink:href="#SegoeUI-50" transform="translate(2735.296875 0)"/>
      <use xlink:href="#SegoeUI-52" transform="translate(2821.4375 0)"/>
      <use xlink:href="#SegoeUI-47" transform="translate(2880.03125 0)"/>
      <use xlink:href="#SegoeUI-48" transform="translate(2938.921875 0)"/>
      <use xlink:href="#SegoeUI-4f" transform="translate(2991.21875 0)"/>
      <use xlink:href="#SegoeUI-4f" transform="translate(3015.4375 0)"/>
      <use xlink:href="#SegoeUI-48" transform="translate(3039.65625 0)"/>
      <use xlink:href="#SegoeUI-47" transform="translate(3091.953125 0)"/>
      <use xlink:href="#SegoeUI-c" transform="translate(3150.84375 0)"/>
     </g>
    </g>
   </g>
   <g id="matplotlib.axis_2">
    <g id="ytick_1">
     <g id="line2d_15">
      <defs>
       <path id="mf7b51757c3" d="M 0 0 
L -3.5 0 
" style="stroke: #5a5a5a; stroke-width: 0.8"/>
      </defs>
      <g>
       <use xlink:href="#mf7b51757c3" x="150.28" y="42.17476" style="fill: #5a5a5a; stroke: #5a5a5a; stroke-width: 0.8"/>
      </g>
     </g>
     <g id="text_9">
      <!-- Wholly standard-rated restaurant -->
      <g style="fill: #5a5a5a" transform="translate(11.420156 45.506166) scale(0.09 -0.09)">
       <defs>
        <path id="SegoeUI-3a" d="M 5900 4481 
L 4634 0 
L 4019 0 
L 3097 3275 
Q 3038 3484 3025 3731 
L 3013 3731 
Q 2994 3500 2931 3281 
L 2003 0 
L 1394 0 
L 81 4481 
L 659 4481 
L 1613 1044 
Q 1672 828 1688 594 
L 1703 594 
Q 1719 759 1800 1044 
L 2791 4481 
L 3294 4481 
L 4244 1019 
Q 4294 841 4319 600 
L 4331 600 
Q 4344 763 4416 1031 
L 5331 4481 
L 5900 4481 
z
" transform="scale(0.015625)"/>
        <path id="SegoeUI-4b" d="M 3175 0 
L 2663 0 
L 2663 1844 
Q 2663 2844 1919 2844 
Q 1544 2844 1287 2555 
Q 1031 2266 1031 1813 
L 1031 0 
L 519 0 
L 519 4738 
L 1031 4738 
L 1031 2669 
L 1044 2669 
Q 1413 3275 2094 3275 
Q 3175 3275 3175 1972 
L 3175 0 
z
" transform="scale(0.015625)"/>
        <path id="SegoeUI-10" d="M 2156 1581 
L 450 1581 
L 450 1984 
L 2156 1984 
L 2156 1581 
z
" transform="scale(0.015625)"/>
       </defs>
       <use xlink:href="#SegoeUI-3a"/>
       <use xlink:href="#SegoeUI-4b" transform="translate(93.40625 0)"/>
       <use xlink:href="#SegoeUI-52" transform="translate(150 0)"/>
       <use xlink:href="#SegoeUI-4f" transform="translate(208.59375 0)"/>
       <use xlink:href="#SegoeUI-4f" transform="translate(232.8125 0)"/>
       <use xlink:href="#SegoeUI-5c" transform="translate(257.03125 0)"/>
       <use xlink:href="#SegoeUI-3" transform="translate(305.421875 0)"/>
       <use xlink:href="#SegoeUI-56" transform="translate(332.8125 0)"/>
       <use xlink:href="#SegoeUI-57" transform="translate(375.25 0)"/>
       <use xlink:href="#SegoeUI-44" transform="translate(409.140625 0)"/>
       <use xlink:href="#SegoeUI-51" transform="translate(460.015625 0)"/>
       <use xlink:href="#SegoeUI-47" transform="translate(516.609375 0)"/>
       <use xlink:href="#SegoeUI-44" transform="translate(575.5 0)"/>
       <use xlink:href="#SegoeUI-55" transform="translate(626.375 0)"/>
       <use xlink:href="#SegoeUI-47" transform="translate(661.140625 0)"/>
       <use xlink:href="#SegoeUI-10" transform="translate(720.03125 0)"/>
       <use xlink:href="#SegoeUI-55" transform="translate(760.015625 0)"/>
       <use xlink:href="#SegoeUI-44" transform="translate(794.78125 0)"/>
       <use xlink:href="#SegoeUI-57" transform="translate(845.65625 0)"/>
       <use xlink:href="#SegoeUI-48" transform="translate(879.546875 0)"/>
       <use xlink:href="#SegoeUI-47" transform="translate(931.84375 0)"/>
       <use xlink:href="#SegoeUI-3" transform="translate(990.734375 0)"/>
       <use xlink:href="#SegoeUI-55" transform="translate(1018.125 0)"/>
       <use xlink:href="#SegoeUI-48" transform="translate(1052.890625 0)"/>
       <use xlink:href="#SegoeUI-56" transform="translate(1105.1875 0)"/>
       <use xlink:href="#SegoeUI-57" transform="translate(1147.625 0)"/>
       <use xlink:href="#SegoeUI-44" transform="translate(1181.515625 0)"/>
       <use xlink:href="#SegoeUI-58" transform="translate(1232.390625 0)"/>
       <use xlink:href="#SegoeUI-55" transform="translate(1288.984375 0)"/>
       <use xlink:href="#SegoeUI-44" transform="translate(1323.75 0)"/>
       <use xlink:href="#SegoeUI-51" transform="translate(1374.625 0)"/>
       <use xlink:href="#SegoeUI-57" transform="translate(1431.21875 0)"/>
      </g>
     </g>
    </g>
    <g id="ytick_2">
     <g id="line2d_16">
      <g>
       <use xlink:href="#mf7b51757c3" x="150.28" y="71.099903" style="fill: #5a5a5a; stroke: #5a5a5a; stroke-width: 0.8"/>
      </g>
     </g>
     <g id="text_10">
      <!-- Costa -->
      <g style="fill: #5a5a5a" transform="translate(120.985313 74.376026) scale(0.09 -0.09)">
       <defs>
        <path id="SegoeUI-26" d="M 3638 188 
Q 3141 -75 2400 -75 
Q 1444 -75 869 540 
Q 294 1156 294 2156 
Q 294 3231 941 3893 
Q 1588 4556 2581 4556 
Q 3219 4556 3638 4372 
L 3638 3813 
Q 3156 4081 2575 4081 
Q 1803 4081 1323 3565 
Q 844 3050 844 2188 
Q 844 1369 1292 883 
Q 1741 397 2469 397 
Q 3144 397 3638 697 
L 3638 188 
z
" transform="scale(0.015625)"/>
       </defs>
       <use xlink:href="#SegoeUI-26"/>
       <use xlink:href="#SegoeUI-52" transform="translate(61.921875 0)"/>
       <use xlink:href="#SegoeUI-56" transform="translate(120.515625 0)"/>
       <use xlink:href="#SegoeUI-57" transform="translate(162.953125 0)"/>
       <use xlink:href="#SegoeUI-44" transform="translate(196.84375 0)"/>
      </g>
     </g>
    </g>
    <g id="ytick_3">
     <g id="line2d_17">
      <g>
       <use xlink:href="#mf7b51757c3" x="150.28" y="100.025046" style="fill: #5a5a5a; stroke: #5a5a5a; stroke-width: 0.8"/>
      </g>
     </g>
     <g id="text_11">
      <!-- Gail’s -->
      <g style="fill: #5a5a5a" transform="translate(122.286094 103.356452) scale(0.09 -0.09)">
       <defs>
        <path id="SegoeUI-2a" d="M 3938 306 
Q 3263 -75 2438 -75 
Q 1478 -75 886 544 
Q 294 1163 294 2181 
Q 294 3222 951 3889 
Q 1609 4556 2619 4556 
Q 3350 4556 3847 4319 
L 3847 3738 
Q 3303 4081 2559 4081 
Q 1806 4081 1325 3562 
Q 844 3044 844 2219 
Q 844 1369 1291 883 
Q 1738 397 2503 397 
Q 3028 397 3413 606 
L 3413 1863 
L 2431 1863 
L 2431 2338 
L 3938 2338 
L 3938 306 
z
" transform="scale(0.015625)"/>
        <path id="SegoeUI-b7" d="M 1150 4556 
L 713 3163 
L 344 3163 
L 691 4556 
L 1150 4556 
z
" transform="scale(0.015625)"/>
       </defs>
       <use xlink:href="#SegoeUI-2a"/>
       <use xlink:href="#SegoeUI-44" transform="translate(68.609375 0)"/>
       <use xlink:href="#SegoeUI-4c" transform="translate(119.484375 0)"/>
       <use xlink:href="#SegoeUI-4f" transform="translate(143.703125 0)"/>
       <use xlink:href="#SegoeUI-b7" transform="translate(167.921875 0)"/>
       <use xlink:href="#SegoeUI-56" transform="translate(190.828125 0)"/>
      </g>
     </g>
    </g>
    <g id="ytick_4">
     <g id="line2d_18">
      <g>
       <use xlink:href="#mf7b51757c3" x="150.28" y="128.950189" style="fill: #5a5a5a; stroke: #5a5a5a; stroke-width: 0.8"/>
      </g>
     </g>
     <g id="text_12">
      <!-- Pret A Manger -->
      <g style="fill: #5a5a5a" transform="translate(85.729219 132.226312) scale(0.09 -0.09)">
       <defs>
        <path id="SegoeUI-33" d="M 1113 1694 
L 1113 0 
L 588 0 
L 588 4481 
L 1819 4481 
Q 2538 4481 2933 4131 
Q 3328 3781 3328 3144 
Q 3328 2506 2889 2100 
Q 2450 1694 1703 1694 
L 1113 1694 
z
M 1113 4006 
L 1113 2169 
L 1663 2169 
Q 2206 2169 2492 2417 
Q 2778 2666 2778 3119 
Q 2778 4006 1728 4006 
L 1113 4006 
z
" transform="scale(0.015625)"/>
        <path id="SegoeUI-30" d="M 5156 0 
L 4634 0 
L 4634 3006 
Q 4634 3363 4678 3878 
L 4666 3878 
Q 4591 3575 4531 3444 
L 3000 0 
L 2744 0 
L 1216 3419 
Q 1150 3569 1081 3878 
L 1069 3878 
Q 1094 3609 1094 3000 
L 1094 0 
L 588 0 
L 588 4481 
L 1281 4481 
L 2656 1356 
Q 2816 997 2863 819 
L 2881 819 
Q 3016 1188 3097 1369 
L 4500 4481 
L 5156 4481 
L 5156 0 
z
" transform="scale(0.015625)"/>
       </defs>
       <use xlink:href="#SegoeUI-33"/>
       <use xlink:href="#SegoeUI-55" transform="translate(56 0)"/>
       <use xlink:href="#SegoeUI-48" transform="translate(90.765625 0)"/>
       <use xlink:href="#SegoeUI-57" transform="translate(143.0625 0)"/>
       <use xlink:href="#SegoeUI-3" transform="translate(176.953125 0)"/>
       <use xlink:href="#SegoeUI-24" transform="translate(204.34375 0)"/>
       <use xlink:href="#SegoeUI-3" transform="translate(268.84375 0)"/>
       <use xlink:href="#SegoeUI-30" transform="translate(296.234375 0)"/>
       <use xlink:href="#SegoeUI-44" transform="translate(386.03125 0)"/>
       <use xlink:href="#SegoeUI-51" transform="translate(436.90625 0)"/>
       <use xlink:href="#SegoeUI-4a" transform="translate(493.5 0)"/>
       <use xlink:href="#SegoeUI-48" transform="translate(552.390625 0)"/>
       <use xlink:href="#SegoeUI-55" transform="translate(604.6875 0)"/>
      </g>
     </g>
    </g>
    <g id="ytick_5">
     <g id="line2d_19">
      <g>
       <use xlink:href="#mf7b51757c3" x="150.28" y="157.875332" style="fill: #5a5a5a; stroke: #5a5a5a; stroke-width: 0.8"/>
      </g>
     </g>
     <g id="text_13">
      <!-- Greggs -->
      <g style="fill: #5a5a5a" transform="translate(114.849844 161.151455) scale(0.09 -0.09)">
       <use xlink:href="#SegoeUI-2a"/>
       <use xlink:href="#SegoeUI-55" transform="translate(68.609375 0)"/>
       <use xlink:href="#SegoeUI-48" transform="translate(103.375 0)"/>
       <use xlink:href="#SegoeUI-4a" transform="translate(155.671875 0)"/>
       <use xlink:href="#SegoeUI-4a" transform="translate(214.5625 0)"/>
       <use xlink:href="#SegoeUI-56" transform="translate(273.453125 0)"/>
      </g>
     </g>
    </g>
    <g id="ytick_6">
     <g id="line2d_20">
      <g>
       <use xlink:href="#mf7b51757c3" x="150.28" y="186.800475" style="fill: #5a5a5a; stroke: #5a5a5a; stroke-width: 0.8"/>
      </g>
     </g>
     <g id="text_14">
      <!-- Wholly zero-rated counter -->
      <g style="fill: #5a5a5a" transform="translate(38.816719 190.131881) scale(0.09 -0.09)">
       <defs>
        <path id="SegoeUI-5d" d="M 2750 3053 
L 856 438 
L 2731 438 
L 2731 0 
L 103 0 
L 103 159 
L 1997 2763 
L 281 2763 
L 281 3200 
L 2750 3200 
L 2750 3053 
z
" transform="scale(0.015625)"/>
       </defs>
       <use xlink:href="#SegoeUI-3a"/>
       <use xlink:href="#SegoeUI-4b" transform="translate(93.40625 0)"/>
       <use xlink:href="#SegoeUI-52" transform="translate(150 0)"/>
       <use xlink:href="#SegoeUI-4f" transform="translate(208.59375 0)"/>
       <use xlink:href="#SegoeUI-4f" transform="translate(232.8125 0)"/>
       <use xlink:href="#SegoeUI-5c" transform="translate(257.03125 0)"/>
       <use xlink:href="#SegoeUI-3" transform="translate(305.421875 0)"/>
       <use xlink:href="#SegoeUI-5d" transform="translate(332.8125 0)"/>
       <use xlink:href="#SegoeUI-48" transform="translate(378.03125 0)"/>
       <use xlink:href="#SegoeUI-55" transform="translate(430.328125 0)"/>
       <use xlink:href="#SegoeUI-52" transform="translate(465.09375 0)"/>
       <use xlink:href="#SegoeUI-10" transform="translate(523.6875 0)"/>
       <use xlink:href="#SegoeUI-55" transform="translate(563.671875 0)"/>
       <use xlink:href="#SegoeUI-44" transform="translate(598.4375 0)"/>
       <use xlink:href="#SegoeUI-57" transform="translate(649.3125 0)"/>
       <use xlink:href="#SegoeUI-48" transform="translate(683.203125 0)"/>
       <use xlink:href="#SegoeUI-47" transform="translate(735.5 0)"/>
       <use xlink:href="#SegoeUI-3" transform="translate(794.390625 0)"/>
       <use xlink:href="#SegoeUI-46" transform="translate(821.78125 0)"/>
       <use xlink:href="#SegoeUI-52" transform="translate(867.96875 0)"/>
       <use xlink:href="#SegoeUI-58" transform="translate(926.5625 0)"/>
       <use xlink:href="#SegoeUI-51" transform="translate(983.15625 0)"/>
       <use xlink:href="#SegoeUI-57" transform="translate(1039.75 0)"/>
       <use xlink:href="#SegoeUI-48" transform="translate(1073.640625 0)"/>
       <use xlink:href="#SegoeUI-55" transform="translate(1125.9375 0)"/>
      </g>
     </g>
    </g>
   </g>
   <g id="patch_3">
    <path d="M -661.945806 51.141554 
L 240.527312 51.141554 
L 240.527312 33.207965 
L -661.945806 33.207965 
z
" clip-path="url(#p348addbf25)" style="fill: #1a3c6e"/>
   </g>
   <g id="patch_4">
    <path d="M -661.945806 80.066697 
L 264.296638 80.066697 
L 264.296638 62.133108 
L -661.945806 62.133108 
z
" clip-path="url(#p348addbf25)" style="fill: #00a6e6"/>
   </g>
   <g id="patch_5">
    <path d="M -661.945806 108.99184 
L 284.875915 108.99184 
L 284.875915 91.058251 
L -661.945806 91.058251 
z
" clip-path="url(#p348addbf25)" style="fill: #00a6e6"/>
   </g>
   <g id="patch_6">
    <path d="M -661.945806 137.916983 
L 291.229552 137.916983 
L 291.229552 119.983394 
L -661.945806 119.983394 
z
" clip-path="url(#p348addbf25)" style="fill: #00a6e6"/>
   </g>
   <g id="patch_7">
    <path d="M -661.945806 166.842126 
L 293.327269 166.842126 
L 293.327269 148.908537 
L -661.945806 148.908537 
z
" clip-path="url(#p348addbf25)" style="fill: #00a6e6"/>
   </g>
   <g id="patch_8">
    <path d="M -661.945806 195.767269 
L 421.021935 195.767269 
L 421.021935 177.83368 
L -661.945806 177.83368 
z
" clip-path="url(#p348addbf25)" style="fill: #8ec5e3"/>
   </g>
   <g id="line2d_21">
    <path d="M 293.231742 157.875332 
L 349.546065 157.875332 
" clip-path="url(#p348addbf25)" style="fill: none; stroke: #d9922e; stroke-width: 3"/>
   </g>
   <g id="patch_9">
    <path d="M 150.28 203.895234 
L 150.28 25.08 
" style="fill: none; stroke: #e3ddd3; stroke-width: 0.8; stroke-linejoin: miter; stroke-linecap: square"/>
   </g>
   <g id="patch_10">
    <path d="M 150.28 203.895234 
L 486 203.895234 
" style="fill: none; stroke: #e3ddd3; stroke-width: 0.8; stroke-linejoin: miter; stroke-linecap: square"/>
   </g>
   <g id="text_15">
    <!-- £8.33 -->
    <g style="fill: #0b1e39" transform="translate(244.859183 44.503861) scale(0.09 -0.09)">
     <defs>
      <path id="SegoeUI-Bold-85" d="M 3481 0 
L 447 0 
L 447 709 
Q 1050 872 1050 1550 
L 1050 1913 
L 513 1913 
L 513 2591 
L 1050 2591 
L 1050 3175 
Q 1050 3794 1431 4175 
Q 1813 4556 2463 4556 
Q 2859 4556 3194 4403 
L 3194 3597 
Q 2888 3803 2541 3803 
Q 1966 3803 1966 3084 
L 1966 2591 
L 2803 2591 
L 2803 1913 
L 1966 1913 
L 1966 1644 
Q 1966 1069 1491 756 
L 3481 756 
L 3481 0 
z
" transform="scale(0.015625)"/>
      <path id="SegoeUI-Bold-1b" d="M 250 1206 
Q 250 1394 304 1567 
Q 359 1741 468 1889 
Q 578 2038 742 2155 
Q 906 2272 1128 2347 
Q 788 2516 600 2780 
Q 413 3044 413 3366 
Q 413 3622 520 3840 
Q 628 4059 818 4218 
Q 1009 4378 1273 4467 
Q 1538 4556 1850 4556 
Q 2169 4556 2434 4467 
Q 2700 4378 2892 4220 
Q 3084 4063 3190 3847 
Q 3297 3631 3297 3378 
Q 3297 3059 3097 2798 
Q 2897 2538 2544 2369 
Q 2763 2294 2928 2176 
Q 3094 2059 3206 1909 
Q 3319 1759 3375 1582 
Q 3431 1406 3431 1216 
Q 3431 928 3315 692 
Q 3200 456 2989 286 
Q 2778 116 2486 22 
Q 2194 -72 1841 -72 
Q 1494 -72 1201 20 
Q 909 113 698 281 
Q 488 450 369 686 
Q 250 922 250 1206 
z
M 1184 1291 
Q 1184 1138 1231 1016 
Q 1278 894 1365 809 
Q 1453 725 1573 679 
Q 1694 634 1844 634 
Q 1988 634 2108 681 
Q 2228 728 2315 812 
Q 2403 897 2453 1019 
Q 2503 1141 2503 1291 
Q 2503 1425 2456 1547 
Q 2409 1669 2321 1758 
Q 2234 1847 2114 1900 
Q 1994 1953 1844 1953 
Q 1703 1953 1581 1904 
Q 1459 1856 1371 1767 
Q 1284 1678 1234 1556 
Q 1184 1434 1184 1291 
z
M 1322 3275 
Q 1322 3156 1364 3051 
Q 1406 2947 1478 2870 
Q 1550 2794 1648 2750 
Q 1747 2706 1856 2706 
Q 1969 2706 2066 2750 
Q 2163 2794 2236 2872 
Q 2309 2950 2351 3053 
Q 2394 3156 2394 3275 
Q 2394 3397 2353 3501 
Q 2313 3606 2239 3682 
Q 2166 3759 2067 3803 
Q 1969 3847 1856 3847 
Q 1738 3847 1639 3801 
Q 1541 3756 1470 3679 
Q 1400 3603 1361 3498 
Q 1322 3394 1322 3275 
z
" transform="scale(0.015625)"/>
      <path id="SegoeUI-Bold-11" d="M 856 -78 
Q 613 -78 450 72 
Q 288 222 288 441 
Q 288 666 455 809 
Q 622 953 872 953 
Q 1125 953 1286 808 
Q 1447 663 1447 441 
Q 1447 213 1283 67 
Q 1119 -78 856 -78 
z
" transform="scale(0.015625)"/>
      <path id="SegoeUI-Bold-16" d="M 366 147 
L 366 1006 
Q 816 678 1416 678 
Q 1794 678 2005 840 
Q 2216 1003 2216 1294 
Q 2216 1594 1955 1756 
Q 1694 1919 1238 1919 
L 822 1919 
L 822 2675 
L 1206 2675 
Q 2081 2675 2081 3256 
Q 2081 3803 1409 3803 
Q 959 3803 534 3513 
L 534 4319 
Q 1006 4556 1634 4556 
Q 2322 4556 2705 4247 
Q 3088 3938 3088 3444 
Q 3088 2566 2197 2344 
L 2197 2328 
Q 2672 2269 2947 1983 
Q 3222 1697 3222 1281 
Q 3222 653 2762 287 
Q 2303 -78 1494 -78 
Q 800 -78 366 147 
z
" transform="scale(0.015625)"/>
     </defs>
     <use xlink:href="#SegoeUI-Bold-85"/>
     <use xlink:href="#SegoeUI-Bold-1b" transform="translate(57.515625 0)"/>
     <use xlink:href="#SegoeUI-Bold-11" transform="translate(115.03125 0)"/>
     <use xlink:href="#SegoeUI-Bold-16" transform="translate(142.125 0)"/>
     <use xlink:href="#SegoeUI-Bold-16" transform="translate(199.640625 0)"/>
    </g>
   </g>
   <g id="text_16">
    <!-- £8.55 -->
    <g style="fill: #0b1e39" transform="translate(268.628509 73.429004) scale(0.09 -0.09)">
     <defs>
      <path id="SegoeUI-Bold-18" d="M 444 116 
L 444 959 
Q 903 678 1422 678 
Q 1813 678 2033 864 
Q 2253 1050 2253 1369 
Q 2253 2034 1313 2034 
Q 966 2034 513 1981 
L 681 4481 
L 3053 4481 
L 3053 3675 
L 1434 3675 
L 1372 2778 
Q 1613 2797 1788 2797 
Q 2478 2797 2868 2434 
Q 3259 2072 3259 1459 
Q 3259 781 2793 351 
Q 2328 -78 1531 -78 
Q 884 -78 444 116 
z
" transform="scale(0.015625)"/>
     </defs>
     <use xlink:href="#SegoeUI-Bold-85"/>
     <use xlink:href="#SegoeUI-Bold-1b" transform="translate(57.515625 0)"/>
     <use xlink:href="#SegoeUI-Bold-11" transform="translate(115.03125 0)"/>
     <use xlink:href="#SegoeUI-Bold-18" transform="translate(142.125 0)"/>
     <use xlink:href="#SegoeUI-Bold-18" transform="translate(199.640625 0)"/>
    </g>
   </g>
   <g id="text_17">
    <!-- £8.74 -->
    <g style="fill: #0b1e39" transform="translate(289.207786 102.354147) scale(0.09 -0.09)">
     <defs>
      <path id="SegoeUI-Bold-1a" d="M 3419 3913 
Q 3119 3372 2881 2898 
Q 2644 2425 2462 1964 
Q 2281 1503 2153 1026 
Q 2025 550 1944 0 
L 913 0 
Q 1000 522 1144 1006 
Q 1288 1491 1477 1945 
Q 1666 2400 1895 2831 
Q 2125 3263 2381 3675 
L 300 3675 
L 300 4481 
L 3419 4481 
L 3419 3913 
z
" transform="scale(0.015625)"/>
      <path id="SegoeUI-Bold-17" d="M 2975 4481 
L 2975 1656 
L 3513 1656 
L 3513 919 
L 2975 919 
L 2975 0 
L 2075 0 
L 2075 919 
L 122 919 
L 122 1691 
Q 381 1981 659 2326 
Q 938 2672 1197 3037 
Q 1456 3403 1679 3773 
Q 1903 4144 2059 4481 
L 2975 4481 
z
M 1006 1656 
L 2075 1656 
L 2075 3222 
Q 1966 3019 1837 2811 
Q 1709 2603 1568 2401 
Q 1428 2200 1284 2011 
Q 1141 1822 1006 1656 
z
" transform="scale(0.015625)"/>
     </defs>
     <use xlink:href="#SegoeUI-Bold-85"/>
     <use xlink:href="#SegoeUI-Bold-1b" transform="translate(57.515625 0)"/>
     <use xlink:href="#SegoeUI-Bold-11" transform="translate(115.03125 0)"/>
     <use xlink:href="#SegoeUI-Bold-1a" transform="translate(142.125 0)"/>
     <use xlink:href="#SegoeUI-Bold-17" transform="translate(199.640625 0)"/>
    </g>
   </g>
   <g id="text_18">
    <!-- £8.80 -->
    <g style="fill: #0b1e39" transform="translate(295.561423 131.27929) scale(0.09 -0.09)">
     <defs>
      <path id="SegoeUI-Bold-13" d="M 1816 -78 
Q 216 -78 216 2169 
Q 216 3334 648 3945 
Q 1081 4556 1903 4556 
Q 3466 4556 3466 2272 
Q 3466 1134 3039 528 
Q 2613 -78 1816 -78 
z
M 1859 3803 
Q 1219 3803 1219 2194 
Q 1219 678 1847 678 
Q 2459 678 2459 2241 
Q 2459 3803 1859 3803 
z
" transform="scale(0.015625)"/>
     </defs>
     <use xlink:href="#SegoeUI-Bold-85"/>
     <use xlink:href="#SegoeUI-Bold-1b" transform="translate(57.515625 0)"/>
     <use xlink:href="#SegoeUI-Bold-11" transform="translate(115.03125 0)"/>
     <use xlink:href="#SegoeUI-Bold-1b" transform="translate(142.125 0)"/>
     <use xlink:href="#SegoeUI-Bold-13" transform="translate(199.640625 0)"/>
    </g>
   </g>
   <g id="text_19">
    <!-- £8.82 -->
    <g style="fill: #0b1e39" transform="translate(353.877935 160.204433) scale(0.09 -0.09)">
     <defs>
      <path id="SegoeUI-Bold-15" d="M 1341 819 
L 3241 819 
L 3241 0 
L 259 0 
L 259 338 
Q 259 681 375 954 
Q 491 1228 666 1445 
Q 841 1663 1048 1830 
Q 1256 1997 1444 2131 
Q 1641 2272 1789 2400 
Q 1938 2528 2039 2654 
Q 2141 2781 2191 2911 
Q 2241 3041 2241 3188 
Q 2241 3475 2078 3622 
Q 1916 3769 1581 3769 
Q 1003 3769 475 3309 
L 475 4178 
Q 1059 4556 1794 4556 
Q 2134 4556 2404 4467 
Q 2675 4378 2862 4212 
Q 3050 4047 3148 3811 
Q 3247 3575 3247 3284 
Q 3247 2975 3151 2734 
Q 3056 2494 2898 2297 
Q 2741 2100 2534 1936 
Q 2328 1772 2106 1619 
Q 1956 1513 1817 1408 
Q 1678 1303 1572 1201 
Q 1466 1100 1403 1003 
Q 1341 906 1341 819 
z
" transform="scale(0.015625)"/>
     </defs>
     <use xlink:href="#SegoeUI-Bold-85"/>
     <use xlink:href="#SegoeUI-Bold-1b" transform="translate(57.515625 0)"/>
     <use xlink:href="#SegoeUI-Bold-11" transform="translate(115.03125 0)"/>
     <use xlink:href="#SegoeUI-Bold-1b" transform="translate(142.125 0)"/>
     <use xlink:href="#SegoeUI-Bold-15" transform="translate(199.640625 0)"/>
    </g>
   </g>
   <g id="text_20">
    <!-- £10.00 -->
    <g style="fill: #0b1e39" transform="translate(425.353806 189.129576) scale(0.09 -0.09)">
     <defs>
      <path id="SegoeUI-Bold-14" d="M 2600 4581 
L 2600 0 
L 1616 0 
L 1616 3469 
Q 1534 3397 1423 3333 
Q 1313 3269 1188 3217 
Q 1063 3166 928 3130 
Q 794 3094 663 3078 
L 663 3909 
Q 1047 4022 1387 4197 
Q 1728 4372 2003 4581 
L 2600 4581 
z
" transform="scale(0.015625)"/>
     </defs>
     <use xlink:href="#SegoeUI-Bold-85"/>
     <use xlink:href="#SegoeUI-Bold-14" transform="translate(57.515625 0)"/>
     <use xlink:href="#SegoeUI-Bold-13" transform="translate(115.03125 0)"/>
     <use xlink:href="#SegoeUI-Bold-11" transform="translate(172.546875 0)"/>
     <use xlink:href="#SegoeUI-Bold-13" transform="translate(199.640625 0)"/>
     <use xlink:href="#SegoeUI-Bold-13" transform="translate(257.15625 0)"/>
    </g>
   </g>
   <g id="text_21">
    <!-- cooling-rule scenarios: up to £9.34 -->
    <g style="fill: #d9922e" transform="translate(295.397677 145.726772) scale(0.075 -0.075)">
     <defs>
      <path id="SegoeUI-1d" d="M 697 2575 
Q 553 2575 451 2678 
Q 350 2781 350 2925 
Q 350 3069 451 3169 
Q 553 3269 697 3269 
Q 844 3269 947 3169 
Q 1050 3069 1050 2925 
Q 1050 2781 947 2678 
Q 844 2575 697 2575 
z
M 697 -69 
Q 553 -69 451 34 
Q 350 138 350 281 
Q 350 425 451 529 
Q 553 634 697 634 
Q 844 634 947 529 
Q 1050 425 1050 281 
Q 1050 138 947 34 
Q 844 -69 697 -69 
z
" transform="scale(0.015625)"/>
      <path id="SegoeUI-16" d="M 2978 1269 
Q 2978 966 2864 717 
Q 2750 469 2542 292 
Q 2334 116 2043 19 
Q 1753 -78 1403 -78 
Q 763 -78 384 166 
L 384 716 
Q 838 359 1422 359 
Q 1656 359 1845 418 
Q 2034 478 2170 590 
Q 2306 703 2379 862 
Q 2453 1022 2453 1222 
Q 2453 2100 1203 2100 
L 831 2100 
L 831 2534 
L 1184 2534 
Q 2291 2534 2291 3359 
Q 2291 4122 1447 4122 
Q 972 4122 556 3803 
L 556 4300 
Q 984 4556 1575 4556 
Q 1856 4556 2084 4478 
Q 2313 4400 2475 4259 
Q 2638 4119 2727 3922 
Q 2816 3725 2816 3488 
Q 2816 2603 1922 2350 
L 1922 2338 
Q 2150 2313 2344 2227 
Q 2538 2141 2678 2003 
Q 2819 1866 2898 1680 
Q 2978 1494 2978 1269 
z
" transform="scale(0.015625)"/>
      <path id="SegoeUI-17" d="M 2656 4481 
L 2656 1522 
L 3231 1522 
L 3231 1053 
L 2656 1053 
L 2656 0 
L 2150 0 
L 2150 1053 
L 44 1053 
L 44 1497 
Q 338 1828 638 2204 
Q 938 2581 1211 2968 
Q 1484 3356 1717 3742 
Q 1950 4128 2109 4481 
L 2656 4481 
z
M 622 1522 
L 2150 1522 
L 2150 3716 
Q 1916 3306 1706 2984 
Q 1497 2663 1308 2400 
Q 1119 2138 947 1925 
Q 775 1713 622 1522 
z
" transform="scale(0.015625)"/>
     </defs>
     <use xlink:href="#SegoeUI-46"/>
     <use xlink:href="#SegoeUI-52" transform="translate(46.1875 0)"/>
     <use xlink:href="#SegoeUI-52" transform="translate(104.78125 0)"/>
     <use xlink:href="#SegoeUI-4f" transform="translate(163.375 0)"/>
     <use xlink:href="#SegoeUI-4c" transform="translate(187.59375 0)"/>
     <use xlink:href="#SegoeUI-51" transform="translate(211.8125 0)"/>
     <use xlink:href="#SegoeUI-4a" transform="translate(268.40625 0)"/>
     <use xlink:href="#SegoeUI-10" transform="translate(327.296875 0)"/>
     <use xlink:href="#SegoeUI-55" transform="translate(367.28125 0)"/>
     <use xlink:href="#SegoeUI-58" transform="translate(402.046875 0)"/>
     <use xlink:href="#SegoeUI-4f" transform="translate(458.640625 0)"/>
     <use xlink:href="#SegoeUI-48" transform="translate(482.859375 0)"/>
     <use xlink:href="#SegoeUI-3" transform="translate(535.15625 0)"/>
     <use xlink:href="#SegoeUI-56" transform="translate(562.546875 0)"/>
     <use xlink:href="#SegoeUI-46" transform="translate(604.984375 0)"/>
     <use xlink:href="#SegoeUI-48" transform="translate(651.171875 0)"/>
     <use xlink:href="#SegoeUI-51" transform="translate(703.46875 0)"/>
     <use xlink:href="#SegoeUI-44" transform="translate(760.0625 0)"/>
     <use xlink:href="#SegoeUI-55" transform="translate(810.9375 0)"/>
     <use xlink:href="#SegoeUI-4c" transform="translate(845.703125 0)"/>
     <use xlink:href="#SegoeUI-52" transform="translate(869.921875 0)"/>
     <use xlink:href="#SegoeUI-56" transform="translate(928.515625 0)"/>
     <use xlink:href="#SegoeUI-1d" transform="translate(970.953125 0)"/>
     <use xlink:href="#SegoeUI-3" transform="translate(992.640625 0)"/>
     <use xlink:href="#SegoeUI-58" transform="translate(1020.03125 0)"/>
     <use xlink:href="#SegoeUI-53" transform="translate(1076.625 0)"/>
     <use xlink:href="#SegoeUI-3" transform="translate(1135.421875 0)"/>
     <use xlink:href="#SegoeUI-57" transform="translate(1162.8125 0)"/>
     <use xlink:href="#SegoeUI-52" transform="translate(1196.703125 0)"/>
     <use xlink:href="#SegoeUI-3" transform="translate(1255.296875 0)"/>
     <use xlink:href="#SegoeUI-85" transform="translate(1282.6875 0)"/>
     <use xlink:href="#SegoeUI-1c" transform="translate(1336.59375 0)"/>
     <use xlink:href="#SegoeUI-11" transform="translate(1390.5 0)"/>
     <use xlink:href="#SegoeUI-16" transform="translate(1412.1875 0)"/>
     <use xlink:href="#SegoeUI-17" transform="translate(1466.09375 0)"/>
    </g>
   </g>
   <g id="text_22">
    <!-- The £10 test: real counter operators sit near the restaurant -->
    <g style="fill: #0b1e39" transform="translate(167.093672 19.08) scale(0.11 -0.11)">
     <defs>
      <path id="SegoeUI-Bold-37" d="M 3659 3659 
L 2381 3659 
L 2381 0 
L 1369 0 
L 1369 3659 
L 97 3659 
L 97 4481 
L 3659 4481 
L 3659 3659 
z
" transform="scale(0.015625)"/>
      <path id="SegoeUI-Bold-4b" d="M 3488 0 
L 2503 0 
L 2503 1819 
Q 2503 2522 1991 2522 
Q 1728 2522 1565 2325 
Q 1403 2128 1403 1825 
L 1403 0 
L 416 0 
L 416 4738 
L 1403 4738 
L 1403 2725 
L 1416 2725 
Q 1778 3278 2400 3278 
Q 3488 3278 3488 1966 
L 3488 0 
z
" transform="scale(0.015625)"/>
      <path id="SegoeUI-Bold-48" d="M 3291 1319 
L 1203 1319 
Q 1253 622 2081 622 
Q 2609 622 3009 872 
L 3009 159 
Q 2566 -78 1856 -78 
Q 1081 -78 653 351 
Q 225 781 225 1550 
Q 225 2347 687 2812 
Q 1150 3278 1825 3278 
Q 2525 3278 2908 2862 
Q 3291 2447 3291 1734 
L 3291 1319 
z
M 2375 1925 
Q 2375 2613 1819 2613 
Q 1581 2613 1407 2416 
Q 1234 2219 1197 1925 
L 2375 1925 
z
" transform="scale(0.015625)"/>
      <path id="SegoeUI-Bold-3" transform="scale(0.015625)"/>
      <path id="SegoeUI-Bold-57" d="M 2350 38 
Q 2131 -78 1691 -78 
Q 647 -78 647 1006 
L 647 2472 
L 128 2472 
L 128 3200 
L 647 3200 
L 647 3891 
L 1631 4172 
L 1631 3200 
L 2350 3200 
L 2350 2472 
L 1631 2472 
L 1631 1178 
Q 1631 678 2028 678 
Q 2184 678 2350 769 
L 2350 38 
z
" transform="scale(0.015625)"/>
      <path id="SegoeUI-Bold-56" d="M 206 84 
L 206 884 
Q 450 738 692 666 
Q 934 594 1150 594 
Q 1413 594 1564 666 
Q 1716 738 1716 884 
Q 1716 978 1647 1040 
Q 1578 1103 1470 1150 
Q 1363 1197 1234 1234 
Q 1106 1272 988 1319 
Q 797 1391 651 1473 
Q 506 1556 407 1665 
Q 309 1775 257 1919 
Q 206 2063 206 2259 
Q 206 2528 323 2722 
Q 441 2916 636 3039 
Q 831 3163 1082 3220 
Q 1334 3278 1606 3278 
Q 1819 3278 2037 3245 
Q 2256 3213 2469 3150 
L 2469 2388 
Q 2281 2497 2067 2551 
Q 1853 2606 1647 2606 
Q 1550 2606 1464 2589 
Q 1378 2572 1312 2539 
Q 1247 2506 1209 2454 
Q 1172 2403 1172 2338 
Q 1172 2250 1228 2187 
Q 1284 2125 1375 2079 
Q 1466 2034 1577 1998 
Q 1688 1963 1797 1925 
Q 1994 1856 2153 1775 
Q 2313 1694 2427 1584 
Q 2541 1475 2602 1328 
Q 2663 1181 2663 978 
Q 2663 694 2539 492 
Q 2416 291 2211 164 
Q 2006 38 1739 -20 
Q 1472 -78 1184 -78 
Q 656 -78 206 84 
z
" transform="scale(0.015625)"/>
      <path id="SegoeUI-Bold-1d" d="M 856 2209 
Q 613 2209 450 2357 
Q 288 2506 288 2725 
Q 288 2950 455 3094 
Q 622 3238 872 3238 
Q 1125 3238 1286 3092 
Q 1447 2947 1447 2725 
Q 1447 2497 1283 2353 
Q 1119 2209 856 2209 
z
M 856 -78 
Q 613 -78 450 72 
Q 288 222 288 441 
Q 288 666 455 809 
Q 622 953 872 953 
Q 1125 953 1286 808 
Q 1447 663 1447 441 
Q 1447 213 1283 67 
Q 1119 -78 856 -78 
z
" transform="scale(0.015625)"/>
      <path id="SegoeUI-Bold-55" d="M 2503 2309 
Q 2325 2406 2088 2406 
Q 1766 2406 1584 2170 
Q 1403 1934 1403 1528 
L 1403 0 
L 416 0 
L 416 3200 
L 1403 3200 
L 1403 2606 
L 1416 2606 
Q 1650 3256 2259 3256 
Q 2416 3256 2503 3219 
L 2503 2309 
z
" transform="scale(0.015625)"/>
      <path id="SegoeUI-Bold-44" d="M 3078 0 
L 2144 0 
L 2144 459 
L 2131 459 
Q 1809 -78 1178 -78 
Q 713 -78 445 186 
Q 178 450 178 891 
Q 178 1822 1281 1966 
L 2150 2081 
Q 2150 2606 1581 2606 
Q 1009 2606 494 2266 
L 494 3009 
Q 700 3116 1058 3197 
Q 1416 3278 1709 3278 
Q 3078 3278 3078 1913 
L 3078 0 
z
M 2150 1300 
L 2150 1516 
L 1569 1441 
Q 1088 1378 1088 1006 
Q 1088 838 1205 730 
Q 1322 622 1522 622 
Q 1800 622 1975 814 
Q 2150 1006 2150 1300 
z
" transform="scale(0.015625)"/>
      <path id="SegoeUI-Bold-4f" d="M 1403 0 
L 416 0 
L 416 4738 
L 1403 4738 
L 1403 0 
z
" transform="scale(0.015625)"/>
      <path id="SegoeUI-Bold-46" d="M 2841 116 
Q 2506 -78 1875 -78 
Q 1138 -78 681 369 
Q 225 816 225 1522 
Q 225 2338 714 2808 
Q 1203 3278 2022 3278 
Q 2588 3278 2841 3128 
L 2841 2291 
Q 2531 2522 2150 2522 
Q 1725 2522 1476 2273 
Q 1228 2025 1228 1588 
Q 1228 1163 1465 920 
Q 1703 678 2119 678 
Q 2488 678 2841 909 
L 2841 116 
z
" transform="scale(0.015625)"/>
      <path id="SegoeUI-Bold-52" d="M 1941 -78 
Q 1141 -78 683 370 
Q 225 819 225 1588 
Q 225 2381 700 2829 
Q 1175 3278 1984 3278 
Q 2781 3278 3234 2829 
Q 3688 2381 3688 1644 
Q 3688 847 3220 384 
Q 2753 -78 1941 -78 
z
M 1966 2522 
Q 1616 2522 1422 2281 
Q 1228 2041 1228 1600 
Q 1228 678 1972 678 
Q 2681 678 2681 1625 
Q 2681 2522 1966 2522 
z
" transform="scale(0.015625)"/>
      <path id="SegoeUI-Bold-58" d="M 3456 0 
L 2472 0 
L 2472 488 
L 2456 488 
Q 2091 -78 1478 -78 
Q 366 -78 366 1269 
L 366 3200 
L 1350 3200 
L 1350 1356 
Q 1350 678 1888 678 
Q 2153 678 2312 864 
Q 2472 1050 2472 1369 
L 2472 3200 
L 3456 3200 
L 3456 0 
z
" transform="scale(0.015625)"/>
      <path id="SegoeUI-Bold-51" d="M 3506 0 
L 2522 0 
L 2522 1778 
Q 2522 2522 1991 2522 
Q 1734 2522 1568 2325 
Q 1403 2128 1403 1825 
L 1403 0 
L 416 0 
L 416 3200 
L 1403 3200 
L 1403 2694 
L 1416 2694 
Q 1769 3278 2444 3278 
Q 3506 3278 3506 1959 
L 3506 0 
z
" transform="scale(0.015625)"/>
      <path id="SegoeUI-Bold-53" d="M 1416 372 
L 1403 372 
L 1403 -1472 
L 416 -1472 
L 416 3200 
L 1403 3200 
L 1403 2719 
L 1416 2719 
Q 1781 3278 2444 3278 
Q 3066 3278 3405 2851 
Q 3744 2425 3744 1691 
Q 3744 891 3348 406 
Q 2953 -78 2297 -78 
Q 1719 -78 1416 372 
z
M 1388 1684 
L 1388 1428 
Q 1388 1097 1563 887 
Q 1738 678 2022 678 
Q 2359 678 2545 939 
Q 2731 1200 2731 1678 
Q 2731 2522 2075 2522 
Q 1772 2522 1580 2292 
Q 1388 2063 1388 1684 
z
" transform="scale(0.015625)"/>
      <path id="SegoeUI-Bold-4c" d="M 916 3706 
Q 666 3706 506 3854 
Q 347 4003 347 4219 
Q 347 4441 506 4581 
Q 666 4722 916 4722 
Q 1169 4722 1326 4581 
Q 1484 4441 1484 4219 
Q 1484 3994 1326 3850 
Q 1169 3706 916 3706 
z
M 1403 0 
L 416 0 
L 416 3200 
L 1403 3200 
L 1403 0 
z
" transform="scale(0.015625)"/>
     </defs>
     <use xlink:href="#SegoeUI-Bold-37"/>
     <use xlink:href="#SegoeUI-Bold-4b" transform="translate(58.59375 0)"/>
     <use xlink:href="#SegoeUI-Bold-48" transform="translate(118.796875 0)"/>
     <use xlink:href="#SegoeUI-Bold-3" transform="translate(172.90625 0)"/>
     <use xlink:href="#SegoeUI-Bold-85" transform="translate(200.5 0)"/>
     <use xlink:href="#SegoeUI-Bold-14" transform="translate(258.015625 0)"/>
     <use xlink:href="#SegoeUI-Bold-13" transform="translate(315.53125 0)"/>
     <use xlink:href="#SegoeUI-Bold-3" transform="translate(373.046875 0)"/>
     <use xlink:href="#SegoeUI-Bold-57" transform="translate(400.640625 0)"/>
     <use xlink:href="#SegoeUI-Bold-48" transform="translate(439.171875 0)"/>
     <use xlink:href="#SegoeUI-Bold-56" transform="translate(493.28125 0)"/>
     <use xlink:href="#SegoeUI-Bold-57" transform="translate(537.28125 0)"/>
     <use xlink:href="#SegoeUI-Bold-1d" transform="translate(576.203125 0)"/>
     <use xlink:href="#SegoeUI-Bold-3" transform="translate(603.296875 0)"/>
     <use xlink:href="#SegoeUI-Bold-55" transform="translate(630.890625 0)"/>
     <use xlink:href="#SegoeUI-Bold-48" transform="translate(670.296875 0)"/>
     <use xlink:href="#SegoeUI-Bold-44" transform="translate(724.40625 0)"/>
     <use xlink:href="#SegoeUI-Bold-4f" transform="translate(778.21875 0)"/>
     <use xlink:href="#SegoeUI-Bold-3" transform="translate(806.640625 0)"/>
     <use xlink:href="#SegoeUI-Bold-46" transform="translate(834.234375 0)"/>
     <use xlink:href="#SegoeUI-Bold-52" transform="translate(882.234375 0)"/>
     <use xlink:href="#SegoeUI-Bold-58" transform="translate(943.375 0)"/>
     <use xlink:href="#SegoeUI-Bold-51" transform="translate(1003.875 0)"/>
     <use xlink:href="#SegoeUI-Bold-57" transform="translate(1064.375 0)"/>
     <use xlink:href="#SegoeUI-Bold-48" transform="translate(1102.90625 0)"/>
     <use xlink:href="#SegoeUI-Bold-55" transform="translate(1157.015625 0)"/>
     <use xlink:href="#SegoeUI-Bold-3" transform="translate(1196.8125 0)"/>
     <use xlink:href="#SegoeUI-Bold-52" transform="translate(1224.40625 0)"/>
     <use xlink:href="#SegoeUI-Bold-53" transform="translate(1285.546875 0)"/>
     <use xlink:href="#SegoeUI-Bold-48" transform="translate(1347.5625 0)"/>
     <use xlink:href="#SegoeUI-Bold-55" transform="translate(1401.671875 0)"/>
     <use xlink:href="#SegoeUI-Bold-44" transform="translate(1441.46875 0)"/>
     <use xlink:href="#SegoeUI-Bold-57" transform="translate(1495.28125 0)"/>
     <use xlink:href="#SegoeUI-Bold-52" transform="translate(1533.8125 0)"/>
     <use xlink:href="#SegoeUI-Bold-55" transform="translate(1594.953125 0)"/>
     <use xlink:href="#SegoeUI-Bold-56" transform="translate(1635.34375 0)"/>
     <use xlink:href="#SegoeUI-Bold-3" transform="translate(1679.34375 0)"/>
     <use xlink:href="#SegoeUI-Bold-56" transform="translate(1706.9375 0)"/>
     <use xlink:href="#SegoeUI-Bold-4c" transform="translate(1750.9375 0)"/>
     <use xlink:href="#SegoeUI-Bold-57" transform="translate(1779.359375 0)"/>
     <use xlink:href="#SegoeUI-Bold-3" transform="translate(1818.28125 0)"/>
     <use xlink:href="#SegoeUI-Bold-51" transform="translate(1845.875 0)"/>
     <use xlink:href="#SegoeUI-Bold-48" transform="translate(1906.375 0)"/>
     <use xlink:href="#SegoeUI-Bold-44" transform="translate(1960.484375 0)"/>
     <use xlink:href="#SegoeUI-Bold-55" transform="translate(2014.296875 0)"/>
     <use xlink:href="#SegoeUI-Bold-3" transform="translate(2054.09375 0)"/>
     <use xlink:href="#SegoeUI-Bold-57" transform="translate(2081.6875 0)"/>
     <use xlink:href="#SegoeUI-Bold-4b" transform="translate(2120.609375 0)"/>
     <use xlink:href="#SegoeUI-Bold-48" transform="translate(2180.8125 0)"/>
     <use xlink:href="#SegoeUI-Bold-3" transform="translate(2234.921875 0)"/>
     <use xlink:href="#SegoeUI-Bold-55" transform="translate(2262.515625 0)"/>
     <use xlink:href="#SegoeUI-Bold-48" transform="translate(2301.921875 0)"/>
     <use xlink:href="#SegoeUI-Bold-56" transform="translate(2356.03125 0)"/>
     <use xlink:href="#SegoeUI-Bold-57" transform="translate(2400.03125 0)"/>
     <use xlink:href="#SegoeUI-Bold-44" transform="translate(2438.953125 0)"/>
     <use xlink:href="#SegoeUI-Bold-58" transform="translate(2492.765625 0)"/>
     <use xlink:href="#SegoeUI-Bold-55" transform="translate(2553.265625 0)"/>
     <use xlink:href="#SegoeUI-Bold-44" transform="translate(2593.0625 0)"/>
     <use xlink:href="#SegoeUI-Bold-51" transform="translate(2646.875 0)"/>
     <use xlink:href="#SegoeUI-Bold-57" transform="translate(2707.375 0)"/>
    </g>
   </g>
  </g>
 </g>
 <defs>
  <clipPath id="p348addbf25">
   <rect x="150.28" y="25.08" width="335.72" height="178.815234"/>
  </clipPath>
 </defs>
</svg>
